# xmcd CD database file
#
# Track frame offsets:
#	150
#	9136
#	12422
#	18325
#	21375
#	49051
#	74637
#	106627
#	142183
#	167531
#	205765
#	233990
#	256189
#	290878
#	306713
#	312168
#
# Disc length: 4505 seconds
#
# Revision: 3
# Processed by: cddbd v1.5.2PL0 Copyright (c) Steve Scherf et al.
# Submitted via: jetAudio 7
#
DISCID=e1119710
DTITLE=Lana Lane - Return to Japan [CD1]
DYEAR=2004
DGENRE=Hard Rock
TTITLE0=Introductory Medley - Dark Water Part III 
TTITLE1=Introductory Medley - Fanfare for the Dragon Isle 
TTITLE2=Introductory Medley - Garden of the Moon 
TTITLE3=Introductory Medley - In the Hall of the Ocean Queen 
TTITLE4=Escher's Staircase
TTITLE5=The Beast Within You 
TTITLE6=Rainbow's End
TTITLE7=Queen of the Ocean 
TTITLE8=Project Shangri La 
TTITLE9=Evolution Revolution 
TTITLE10=Frankenstein Unbound 
TTITLE11=Athena's Shadow 
TTITLE12=Night Falls 
TTITLE13=Astrology Prelude 
TTITLE14=Redemption Part II 
TTITLE15=Secrets of Astrology 
EXTD=YEAR: 2004
EXTT0=
EXTT1=
EXTT2=
EXTT3=
EXTT4=
EXTT5=
EXTT6=
EXTT7=
EXTT8=
EXTT9=
EXTT10=
EXTT11=
EXTT12=
EXTT13=
EXTT14=
EXTT15=
PLAYORDER=
